<?xml version="1.0" standalone="no"?>
<!DOCTYPE svg PUBLIC "-//W3C//DTD SVG 20010904//EN"
 "http://www.w3.org/TR/2001/REC-SVG-20010904/DTD/svg10.dtd">
<svg version="1.0" xmlns="http://www.w3.org/2000/svg"
 width="752.000000pt" height="1208.000000pt" viewBox="0 0 752.000000 1208.000000"
 preserveAspectRatio="xMidYMid meet">
<metadata>
Created by potrace 1.11, written by Peter Selinger 2001-2013
</metadata>
<g transform="translate(0.000000,1208.000000) scale(0.100000,-0.100000)"
fill="#000000" stroke="none">
<path d="M5830 11925 l0 -135 -2910 0 -2910 0 0 -125 0 -125 1875 0 1875 0 0
-5665 0 -5665 -1875 0 c-1660 0 -1875 -2 -1875 -15 0 -13 404 -15 3575 -15
l3574 0 3 -77 3 -78 173 -3 172 -2 0 95 0 95 -1870 0 -1870 0 0 5665 0 5665
1870 0 c1774 0 1870 1 1870 18 0 16 -164 17 -3320 14 l-3320 -2 0 95 0 95
3320 0 3320 0 0 150 0 150 -840 0 -840 0 0 -135z"/>
<path d="M1230 9795 c0 -78 3 -95 15 -95 11 0 15 11 15 41 0 33 3 40 17 37 10
-2 29 -20 42 -41 13 -20 30 -37 38 -37 18 0 16 9 -7 48 -18 30 -19 35 -5 48
22 22 19 71 -4 84 -11 5 -40 10 -65 10 l-46 0 0 -95z"/>
<path d="M2370 9795 c0 -78 3 -95 15 -95 11 0 15 11 15 41 0 33 3 40 17 37 10
-2 29 -20 42 -41 20 -30 30 -37 57 -37 26 0 33 5 38 25 5 20 13 25 36 25 23 0
33 -6 42 -25 16 -35 40 -33 32 3 -23 93 -52 157 -71 160 -17 3 -24 -10 -49
-90 l-29 -92 -23 38 c-21 35 -21 40 -7 56 21 24 19 67 -4 80 -11 5 -40 10 -65
10 l-46 0 0 -95z"/>
<path d="M5020 9715 l0 -95 48 0 c27 0 57 7 70 16 22 15 30 58 13 69 -5 3 -7
22 -4 42 8 46 -13 63 -79 63 l-48 0 0 -95z"/>
<path d="M5515 9797 c-13 -10 -16 -21 -11 -40 4 -18 1 -36 -10 -52 -30 -45 10
-95 64 -79 15 4 31 6 36 5 5 -1 16 1 24 4 11 4 12 8 3 19 -7 8 -11 23 -9 33 2
13 -3 18 -21 18 -29 0 -37 17 -16 35 21 17 19 47 -4 60 -26 13 -33 13 -56 -3z"/>
<path d="M5866 9727 c-14 -47 -26 -90 -26 -96 0 -19 27 -12 33 9 4 15 14 20
40 20 26 0 36 -5 40 -20 3 -11 12 -20 21 -20 9 0 16 1 16 3 0 1 -13 43 -29 92
-22 71 -32 91 -48 93 -17 3 -24 -9 -47 -81z"/>
<path d="M1905 6125 c-36 -35 -36 -115 1 -152 20 -20 31 -24 57 -19 46 9 67
39 67 98 0 39 -5 54 -25 73 -13 14 -36 25 -50 25 -14 0 -37 -11 -50 -25z"/>
<path d="M2060 6050 c0 -73 3 -90 15 -90 11 0 15 11 15 41 0 50 15 48 49 -4
14 -21 33 -37 43 -37 17 0 16 3 -6 39 -25 39 -25 39 -5 57 15 13 18 25 14 43
-9 34 -21 41 -77 41 l-48 0 0 -90z"/>
<path d="M5140 5725 c0 -78 3 -95 15 -95 11 0 15 11 15 40 0 53 22 53 52 0 19
-34 28 -40 56 -40 25 0 35 5 41 23 12 31 74 31 79 -1 2 -14 11 -22 23 -22 11
0 18 3 16 8 -3 4 -17 46 -31 95 -21 69 -30 87 -46 87 -14 0 -24 -18 -46 -82
-14 -46 -29 -87 -32 -92 -2 -4 -14 9 -26 30 -20 37 -21 39 -4 56 22 22 23 37
2 66 -12 18 -25 22 -65 22 l-49 0 0 -95z"/>
<path d="M5826 5812 c-6 -11 -56 -164 -56 -174 0 -17 29 -7 35 11 4 12 17 20
40 23 29 3 35 0 40 -19 3 -13 12 -23 20 -23 20 0 20 2 -13 100 -27 79 -50 108
-66 82z"/>
<path d="M6272 5728 c2 -75 6 -93 18 -93 11 0 15 11 15 38 0 50 24 49 54 -3
19 -34 27 -40 55 -40 24 0 36 6 43 22 14 31 72 32 80 1 5 -22 33 -33 33 -13 0
5 -12 48 -27 95 -23 73 -30 85 -47 83 -16 -2 -26 -22 -48 -88 -15 -47 -27 -87
-28 -90 0 -2 -12 13 -26 34 -24 35 -25 40 -10 48 10 6 16 22 16 43 0 42 -20
55 -85 55 l-46 0 3 -92z"/>
<path d="M1637 2463 c-4 -7 -30 -90 -52 -160 -9 -31 22 -32 34 -2 5 15 17 22
39 24 27 2 33 -2 38 -21 6 -24 34 -34 34 -13 0 6 -12 49 -26 95 -20 65 -30 84
-45 84 -10 0 -20 -3 -22 -7z"/>
<path d="M1760 2375 c0 -78 3 -95 15 -95 11 0 15 11 15 41 0 33 3 40 17 37 10
-2 29 -20 42 -41 23 -35 51 -50 51 -26 0 6 -10 25 -22 41 -19 28 -20 31 -5 40
11 6 17 22 17 43 0 42 -20 55 -84 55 l-46 0 0 -95z"/>
<path d="M1930 2375 c0 -57 4 -95 10 -95 6 0 11 33 11 78 l1 77 14 -69 c23
-114 43 -115 65 -4 l14 73 3 -77 c4 -111 22 -97 22 17 0 94 0 95 -24 95 -22 0
-25 -5 -31 -60 -4 -33 -11 -60 -15 -60 -4 0 -11 21 -15 46 -9 64 -14 74 -36
74 -17 0 -19 -8 -19 -95z"/>
<path d="M5190 2298 c-37 -61 -17 -161 34 -174 75 -18 132 34 123 114 -7 61
-38 92 -94 92 -38 0 -46 -4 -63 -32z"/>
<path d="M5702 2318 c-6 -6 -12 -27 -12 -46 0 -30 5 -35 45 -53 30 -13 45 -26
45 -38 0 -36 -54 -36 -65 -1 -7 23 -35 15 -35 -10 0 -53 101 -69 129 -19 23
42 8 77 -44 99 -25 11 -45 24 -45 30 0 19 30 23 50 5 10 -9 25 -15 34 -13 13
2 14 7 3 28 -10 19 -21 26 -52 28 -23 2 -46 -3 -53 -10z"/>
<path d="M5872 2318 c-7 -7 -12 -27 -12 -46 0 -30 5 -35 45 -53 53 -23 62 -36
42 -56 -18 -19 -51 -10 -63 17 -7 14 -13 17 -24 10 -13 -8 -13 -13 0 -37 14
-24 22 -28 60 -28 38 0 46 4 59 27 24 42 6 79 -47 98 -28 10 -42 20 -40 30 4
21 47 25 54 6 6 -16 44 -23 44 -8 0 4 -7 18 -16 30 -17 25 -81 31 -102 10z"/>
<path d="M6121 2305 c-57 -73 -21 -185 60 -185 41 0 58 10 74 41 24 46 19 115
-10 144 -34 35 -96 35 -124 0z"/>
</g>
</svg>
